<?xml version="1.0" encoding="UTF-8" standalone="no"?>
<svg
   xmlns:dc="http://purl.org/dc/elements/1.1/"
   xmlns:cc="http://creativecommons.org/ns#"
   xmlns:rdf="http://www.w3.org/1999/02/22-rdf-syntax-ns#"
   xmlns:svg="http://www.w3.org/2000/svg"
   xmlns="http://www.w3.org/2000/svg"
   xmlns:sodipodi="http://sodipodi.sourceforge.net/DTD/sodipodi-0.dtd"
   xmlns:inkscape="http://www.inkscape.org/namespaces/inkscape"
   width="125.0mm"
   height="190.0mm"
   viewBox="0 0 125.0 190.0"
   version="1.1"
   id="svg8"
   inkscape:version="1.0.1 (3bc2e813f5, 2020-09-07)"
   sodipodi:docname="goat-pcb.svg">
  <defs
     id="defs2" />
  <sodipodi:namedview
     id="base"
     pagecolor="#ffffff"
     bordercolor="#666666"
     borderopacity="1.0"
     inkscape:pageopacity="0.0"
     inkscape:pageshadow="2"
     inkscape:zoom="1.4166887"
     inkscape:cx="240.49628"
     inkscape:cy="418.07944"
     inkscape:document-units="mm"
     inkscape:current-layer="g881"
     inkscape:document-rotation="0"
     showgrid="false"
     inkscape:window-width="1920"
     inkscape:window-height="1018"
     inkscape:window-x="-6"
     inkscape:window-y="-6"
     inkscape:window-maximized="1" />
  <metadata
     id="metadata5">
    <rdf:RDF>
      <cc:Work
         rdf:about="">
        <dc:format>image/svg+xml</dc:format>
        <dc:type
           rdf:resource="http://purl.org/dc/dcmitype/StillImage" />
        <dc:title></dc:title>
      </cc:Work>
    </rdf:RDF>
  </metadata>
  <g
     inkscape:label="[fixed] BG"
     inkscape:groupmode="layer"
     sodipodi:insensitive="true"
     id="g871">
    <rect
       x="0"
       y="0"
       width="120.0"
       height="120.0"
       style="fill:#FFFFFF;fill-opacity:1;stroke:none"
       id="rect869" />
  </g>
  <g
     inkscape:label="Edge.Cuts"
     inkscape:groupmode="layer"
     id="g873"
     style="display:none">
    <path
       id="rect849-1"
       style="fill:#4d4d4d;fill-opacity:0.4662;stroke-width:0.25;stroke-linecap:round;stroke-linejoin:round;paint-order:markers stroke fill"
       d="m 17.675924,5.8590746 c -8.3099999,0 -14.9995999,6.6901194 -14.9995999,15.0001194 V 169.14058 c 0,8.31 6.6896,15.00011 14.9995999,15.00011 h 89.647246 c 8.31001,0 15.00012,-6.69011 15.00012,-15.00011 V 20.859194 c 0,-8.31 -6.69011,-15.0001194 -15.00012,-15.0001194 z m 44.803982,6.3530994 a 5.0000001,5.0000001 0 0 1 0.0196,0 5.0000001,5.0000001 0 0 1 5.00021,4.9997 5.0000001,5.0000001 0 0 1 -5.00022,5.00021 5.0000001,5.0000001 0 0 1 -4.99968,-5.00021 5.0000001,5.0000001 0 0 1 4.98004,-4.9997 z" />
  </g>
  <g
     inkscape:label="B.Cu"
     inkscape:groupmode="layer"
     id="g875" />
  <g
     inkscape:label="B.Mask"
     inkscape:groupmode="layer"
     id="g877" />
  <g
     inkscape:label="B.SilkS"
     inkscape:groupmode="layer"
     id="g879" />
  <g
     inkscape:label="F.Cu"
     inkscape:groupmode="layer"
     id="g881">
    <path
       id="rect849"
       style="fill:#4d4d4d;fill-opacity:0.4662;stroke-width:0.944882;stroke-linecap:round;stroke-linejoin:round;paint-order:markers stroke fill"
       d="M 66.806641 22.144531 C 35.398766 22.144531 10.115234 47.430017 10.115234 78.837891 L 10.115234 439.71094 L 145.36914 451.99219 L 180.73828 562.10938 L 291.70117 562.81445 L 327.07227 456.22852 L 462.32422 442.92188 L 462.32422 78.837891 C 462.32422 47.430017 437.03873 22.144531 405.63086 22.144531 L 66.806641 22.144531 z M 236.14453 46.15625 A 18.897638 18.897638 0 0 1 236.21875 46.15625 A 18.897638 18.897638 0 0 1 255.11719 65.052734 A 18.897638 18.897638 0 0 1 236.21875 83.951172 A 18.897638 18.897638 0 0 1 217.32227 65.052734 A 18.897638 18.897638 0 0 1 236.14453 46.15625 z M 142.73633 99.966797 C 166.96112 99.97549 197.14038 99.996642 234.57812 100.0293 L 417.78516 100.1875 L 418.3418 100.875 C 418.80003 101.44087 418.93579 102.4979 419.10742 106.84961 C 419.3512 113.03061 419.11496 114.05267 417.27539 114.82227 C 416.21848 115.26387 412.62122 115.47664 412.26367 115.11914 C 412.17145 115.02692 331.07711 114.95565 232.05273 114.96094 C 107.79123 114.9685 51.640432 114.86809 50.820312 114.63867 C 50.166723 114.45612 49.504268 114.06199 49.349609 113.76367 C 49.194649 113.46547 48.967933 110.78279 48.845703 107.80273 C 48.59701 101.73536 48.755601 100.96216 50.382812 100.2832 C 50.989143 100.03035 70.061958 99.940832 142.73633 99.966797 z M 76.644531 127.65039 C 90.143447 127.65039 103.64161 127.79004 103.91797 128.06641 C 104.41471 128.56315 104.46379 146.17483 103.9707 147.0957 C 103.66343 147.66951 103.24927 147.71094 97.771484 147.71094 L 91.902344 147.71094 L 91.912109 148.42578 C 91.919668 148.81915 94.532117 160.15493 97.71875 173.61719 C 102.03009 191.83092 103.62697 198.0957 103.96289 198.0957 C 104.56588 198.0957 108.75981 184.56791 115.92383 159.51172 C 118.99197 148.78096 121.70951 139.4831 121.96289 138.84961 C 122.21612 138.21616 122.98577 135.56583 123.67188 132.96094 C 124.358 130.35605 125.10753 128.10503 125.33789 127.95898 C 125.56806 127.81272 131.21092 127.69248 137.87695 127.68945 C 147.19125 127.68567 150.07258 127.77649 150.32422 128.08203 C 150.50412 128.30049 150.93959 129.69553 151.29297 131.18164 C 151.64635 132.66771 152.66819 136.17141 153.5625 138.96875 C 155.83612 146.08023 159.0059 156.86816 161.08203 164.55859 C 162.04959 168.14272 163.77292 174.0077 164.91211 177.5918 C 166.05133 181.17589 167.61299 186.53954 168.38281 189.51172 C 170.24717 196.71017 170.45616 197.30078 171.13867 197.30078 C 171.44935 197.30078 171.83483 196.97722 171.99609 196.58398 C 172.49038 195.37813 175.06757 185.2372 177.38672 175.36719 C 178.59859 170.20953 180.45955 162.28877 181.52148 157.76562 C 182.58342 153.24252 183.45117 149.27747 183.45117 148.95508 C 183.45117 147.92618 182.37271 147.71007 177.19336 147.70508 C 174.42826 147.70307 171.95167 147.56631 171.68945 147.40039 C 171.28747 147.14641 171.19787 145.6741 171.11914 138.03125 C 171.05674 131.97837 171.1384 128.7521 171.36914 128.32422 C 171.71157 127.68423 171.82283 127.68489 249.66211 127.69922 C 309.74983 127.71056 327.80769 127.80036 328.47266 128.0957 C 328.9471 128.30622 331.52944 130.62356 334.21094 133.24609 C 336.8924 135.86859 340.67732 139.49565 342.62109 141.30469 C 347.95998 146.27356 347.59146 144.65517 347.53125 162.89453 L 347.48242 177.91797 L 341.85547 183.39648 C 338.76125 186.40995 334.53702 190.557 332.46875 192.61133 C 330.07419 194.98967 328.45086 196.35946 328 196.38281 C 327.61052 196.40171 327.14945 196.45332 326.97461 196.49414 C 326.79962 196.53458 313.74756 196.58878 297.96875 196.61523 L 269.2793 196.66406 L 269.2793 202.01953 C 269.2793 206.80343 269.342 207.43041 269.86133 207.90039 C 270.3682 208.35911 271.41697 208.42578 278.05469 208.42578 C 284.43041 208.42578 285.78331 208.50523 286.375 208.91992 C 287.07731 209.41187 287.08008 209.46997 287.08008 218.59375 C 287.08008 226.51345 287.01118 227.84044 286.58008 228.27148 C 286.13285 228.71876 282.85383 228.76953 255.24805 228.76953 C 234.60223 228.76953 224.21252 228.66175 223.80078 228.44141 C 223.21393 228.12733 223.18555 227.67864 223.18555 218.59766 C 223.18555 209.51669 223.21238 209.06802 223.80078 208.75391 C 224.15303 208.56531 226.64472 208.42578 229.63281 208.42578 C 234.28292 208.42578 234.90607 208.36195 235.375 207.84375 C 235.85663 207.31163 235.90234 204.76218 235.90234 177.68945 L 235.90234 148.11523 L 226.12695 147.95898 C 220.75076 147.87281 216.15937 147.8739 215.92383 147.96094 C 215.14933 148.24894 214.36008 150.71902 212.53906 158.56445 C 208.51194 175.91464 205.26584 189.5118 202.41602 200.95508 C 200.76144 207.59885 198.66355 216.32451 197.75586 220.3457 C 196.49852 225.91587 195.95306 227.78905 195.46484 228.21289 C 194.86761 228.73133 193.30481 228.76953 172.4707 228.76953 C 159.57325 228.76953 149.78917 228.64626 149.34375 228.47656 C 148.91912 228.31518 148.47052 227.92089 148.34766 227.60156 C 148.22482 227.28219 146.78175 222.01381 145.14062 215.89453 C 143.49956 209.77532 141.43424 202.08025 140.55078 198.79297 C 139.0522 193.21707 137.98148 190.3043 137.43164 190.30664 C 137.30427 190.30728 135.15311 197.99569 132.65234 207.39258 C 127.03707 228.49236 127.22866 227.86646 126.23242 228.36328 C 125.06031 228.94779 80.824723 228.94779 80.025391 228.36328 C 79.618884 228.06217 78.624567 224.33694 76.318359 214.45703 C 74.584917 207.03105 72.59063 198.81 71.884766 196.1875 C 71.178939 193.56492 69.953542 188.41569 69.162109 184.74414 C 68.370714 181.07259 66.665935 173.91981 65.375 168.84961 C 64.08414 163.77941 62.493437 157.36109 61.839844 154.58594 C 60.230408 147.75244 60.393903 147.92125 55.134766 147.70312 C 52.816441 147.60712 50.751916 147.36289 50.353516 147.14062 C 49.967815 146.92519 49.503796 146.2141 49.322266 145.56055 C 48.837844 143.81629 48.878494 128.55691 49.369141 128.06641 C 49.6455 127.79005 63.14562 127.65039 76.644531 127.65039 z M 387.67773 127.68359 C 415.83801 127.68359 417.70175 127.71798 418.35156 128.24414 C 419.03271 128.79572 419.04297 128.94414 419.04297 137.84961 C 419.04297 146.10992 418.9942 146.92981 418.48438 147.30273 C 418.07524 147.6017 416.28369 147.71094 411.78711 147.71094 C 406.07299 147.71094 405.60551 147.75572 405.01367 148.34766 C 404.38725 148.97415 404.37891 149.40653 404.37891 177.99805 C 404.37891 203.74479 404.43371 207.09379 404.87305 207.7207 C 405.35463 208.40835 405.52818 208.42578 411.36914 208.42578 C 414.66961 208.42578 417.73711 208.56587 418.18555 208.73633 L 419.00195 209.04688 L 419.00195 218.59766 L 419.00195 228.15039 L 418.18555 228.46094 C 417.6769 228.65445 406.22318 228.76953 387.74023 228.76953 C 361.43684 228.76953 358.02953 228.71469 357.40234 228.27539 C 356.70004 227.78345 356.69727 227.72627 356.69727 218.59766 C 356.69727 209.46904 356.69965 209.41381 357.40234 208.92188 C 357.98103 208.51651 359.204 208.42587 364.1582 208.42188 C 367.48488 208.41986 370.42133 208.28078 370.68359 208.11523 C 371.10082 207.85142 371.17036 204.13752 371.24414 178.40234 C 371.32767 149.28422 371.32166 148.98581 370.6875 148.35156 C 370.08807 147.75209 369.63979 147.71094 363.70117 147.71094 C 357.75197 147.71094 357.33388 147.67205 357.02539 147.0957 C 356.82092 146.7139 356.69727 143.10834 356.69727 137.58203 C 356.69727 129.91602 356.76496 128.61393 357.19531 128.18359 C 357.64236 127.73656 360.84539 127.68359 387.67773 127.68359 z M 291.55273 148.0293 C 272.63542 148.0293 270.22347 148.08339 269.7793 148.52734 C 269.34167 148.96501 269.2793 150.61958 269.2793 161.87891 C 269.2793 174.30652 269.29895 174.75237 269.91602 175.36719 C 270.53884 175.98998 270.97432 176.00195 291.39258 176.00195 C 306.482 176.00195 312.42697 175.90129 312.92969 175.63672 C 313.31153 175.43565 313.72899 175.11424 313.85742 174.92188 C 313.98593 174.7295 314.09306 168.88523 314.0957 161.93555 C 314.09948 149.72023 314.08059 149.27869 313.46484 148.66406 C 312.84174 148.0409 312.40421 148.0293 291.55273 148.0293 z M 137.65625 241.41602 C 162.44921 241.42584 194.17826 241.45118 234.73828 241.48633 L 417.78516 241.64453 L 418.3418 242.33203 C 418.8004 242.89843 418.93623 243.95849 419.10938 248.34766 C 419.29495 253.05098 419.25463 253.80774 418.76367 254.80859 C 417.86312 256.64321 416.08534 256.96622 410.25977 256.35938 C 408.49888 256.17607 339.01779 256.11613 229.55859 256.20117 C 123.74584 256.28357 51.294729 256.22309 50.673828 256.05078 C 50.099869 255.89242 49.503373 255.51902 49.347656 255.2207 C 49.19194 254.9225 48.97201 252.24562 48.857422 249.27344 C 48.622335 243.17366 48.757454 242.5857 50.580078 241.80273 C 51.317993 241.48575 63.277381 241.38655 137.65625 241.41602 z M 44.21875 276.16602 L 46.419922 278.31445 C 49.583727 281.4038 53.626652 284.16795 58.365234 286.48242 C 67.808006 291.09454 77.216606 293.07033 89.675781 293.05469 C 101.27772 293.03957 112.61647 291.1703 126.62891 286.96289 C 148.48277 280.40095 166.27071 278.5953 181.4375 281.39648 C 201.29123 285.06334 216.35673 297.30193 226.30664 317.8457 L 228.11328 321.57422 L 230.81641 321.3457 C 232.30252 321.21947 234.73268 321.11523 236.21875 321.11523 C 237.70482 321.11523 240.13694 321.21909 241.62305 321.3457 L 244.32617 321.57422 L 246.13281 317.8457 C 260.33306 288.52632 284.34569 276.49361 319.53906 281.06445 C 327.34205 282.07787 334.69853 283.71244 345.25195 286.7793 C 361.28838 291.43961 370.84824 293.03972 382.76367 293.05469 C 395.2563 293.06981 404.61331 291.10688 414.07422 286.48438 C 418.81352 284.16881 422.85637 281.40316 426.01953 278.31445 L 428.21875 276.16602 L 428.21875 277.83984 C 428.21875 281.31705 426.14644 287.12965 423.00195 292.47266 C 416.43022 303.63897 405.83264 312.09799 392.77539 316.60156 C 380.44676 320.85387 366.83852 321.82369 349.29297 319.69922 C 337.08116 318.22059 333.17138 317.9612 323.00195 317.94922 C 314.69648 317.94166 312.39252 318.03618 309.49219 318.52344 C 302.85874 319.63794 298.35826 321.46435 295.43555 324.22852 L 293.71875 325.85156 L 297.4082 327.04688 C 311.33263 331.55868 320.9227 341.22741 327.94336 357.83008 C 331.46078 366.14825 334.19995 370.81849 338.36133 375.58984 C 344.91095 383.09953 354.04982 388.30663 363.84961 390.11328 C 368.7444 391.01564 368.5956 390.77536 365.7207 393.1582 C 357.45998 400.00489 347.67031 404.39928 337.14648 405.98438 C 333.08932 406.59549 325.10321 406.59488 320.80664 405.98438 C 316.9513 405.43638 310.91483 403.95572 307.88281 402.81445 C 306.71569 402.37505 305.6536 402.01562 305.52344 402.01562 C 305.39342 402.01562 304.90055 403.37883 304.42773 405.04492 C 303.0041 410.06156 298.69795 422.61101 295.94336 429.77344 C 291.23339 442.02028 285.12586 455.84068 279.10156 467.88086 L 275.96875 474.14258 L 276.5918 477.09961 C 278.48341 486.06831 278.05424 496.11411 275.43945 504.05664 C 273.40112 510.24822 269.54274 516.45307 264.75 521.24805 C 263.2202 522.77857 261.96875 524.2312 261.96875 524.47656 C 261.96875 525.37598 264.77778 530.65946 266.38477 532.78125 C 267.29411 533.98193 267.98929 535.01462 267.92969 535.07422 C 267.54885 535.45504 262.38103 535.95087 258.55273 535.97461 C 256.06234 535.98973 254.02442 536.11028 254.02344 536.24219 C 254.02249 536.37409 254.74058 538.44846 255.62109 540.85156 C 256.91559 544.38451 258.52559 547.94485 261.58398 554.04297 C 261.78279 554.43918 253.45802 554.24544 249.88867 553.77148 C 239.59982 552.40477 231.39082 548.83701 225.86719 543.32812 C 223.50551 540.9728 221.07978 537.47079 220.49414 535.57422 C 220.29609 534.93253 220.12242 534.85578 219.26172 535.0293 C 217.53961 535.37626 206.97461 535.6248 206.97461 535.31836 C 206.97461 535.16075 207.19654 534.71279 207.46875 534.32422 C 208.25364 533.20363 209.80005 529.24799 210.46094 526.66797 L 211.06641 524.30273 L 207.82812 521.08398 C 200.78335 514.08509 196.59839 506.03517 195.00781 496.42969 C 194.03251 490.5396 194.4662 481.44453 195.99219 475.78711 L 196.45703 474.0625 L 195.06055 471.49609 C 191.61177 465.15503 183.91108 448.26203 179.41602 437.17773 C 175.03179 426.36674 169.78823 411.509 167.70703 404.00195 C 167.40391 402.90925 167.04897 402.01562 166.91797 402.01562 C 166.78682 402.01562 165.70148 402.38373 164.50586 402.83398 C 158.35752 405.14819 150.65682 406.46768 143.30859 406.46484 C 129.77422 406.46106 117.28918 401.91926 106.71875 393.1582 C 103.83531 390.76833 103.67417 391.01132 108.75 390.08594 C 118.36901 388.33216 127.54458 383.07912 134.07812 375.58789 C 138.2395 370.8165 140.97867 366.14818 144.49609 357.83008 C 151.89092 340.34251 162.35458 330.32993 177.37695 326.36328 L 178.77148 325.99414 L 177.23633 324.4375 C 174.48895 321.64821 169.66956 319.65291 162.94727 318.52344 C 160.04277 318.03542 157.7548 317.9384 149.4375 317.95117 C 139.27711 317.96629 135.2263 318.23667 123.14648 319.69922 C 107.82602 321.55425 96.032605 321.06904 84.732422 318.11719 C 69.010271 314.0102 56.593281 304.90715 49.177734 292.05078 C 46.210915 286.90722 44.21875 281.19901 44.21875 277.83984 L 44.21875 276.16602 z M 306.04102 289.60156 C 302.58949 289.61668 299.26916 289.86265 295.98047 290.32617 C 277.07255 292.99104 263.77328 303.10835 254.67188 321.75 C 253.47683 324.1977 251.88354 327.84487 251.13281 329.85547 C 250.38212 331.8661 249.7488 333.54729 249.72461 333.58984 C 249.70193 333.63255 248.38684 333.38427 246.80469 333.03906 C 239.90089 331.53228 232.14859 331.54527 225.62891 333.07617 C 224.08727 333.43787 222.79076 333.68409 222.74805 333.62305 C 222.70534 333.56182 222.05109 331.86805 221.29492 329.85742 C 217.23726 319.06842 212.08585 310.68173 205.57422 304.26758 C 196.53166 295.36033 185.86196 290.87042 171.14062 289.77734 C 160.69344 289.00167 145.9622 291.04742 131.95508 295.2207 C 120.85971 298.52647 110.43902 300.82812 101.75586 301.89062 C 100.26975 302.07242 95.33478 302.31319 90.789062 302.42578 L 82.523438 302.63086 L 84.431641 303.22266 C 85.480648 303.54845 88.054328 304.16286 90.152344 304.58594 C 97.202448 306.00768 112.50371 305.96433 127.18555 304.48047 L 132.43164 303.94922 L 133.91406 301.0918 C 135.32904 298.36347 135.41207 298.26975 135.75 299.02539 C 135.94465 299.46068 137.16083 302.60634 138.45312 306.01562 C 139.74546 309.42491 140.90513 312.21484 141.03125 312.21484 C 141.15749 312.21484 141.99879 310.03856 142.90039 307.37891 C 143.80196 304.71928 144.6197 302.46425 144.7168 302.36719 C 144.81389 302.27005 146.59541 301.97624 148.67578 301.71484 C 155.92468 300.80405 154.98943 301.29013 157.36328 297.19531 L 159.4375 293.61914 L 161.0957 301.64453 C 162.00853 306.05875 162.80872 309.88618 162.87305 310.14844 C 162.93726 310.41074 164.05082 308.51436 165.34766 305.93555 C 167.32582 302.00197 167.8192 301.24805 168.41406 301.24805 C 169.39394 301.24805 175.02294 302.37684 176.83594 302.9375 L 178.32617 303.39844 L 181.76367 300.92383 C 183.65381 299.56312 185.23227 298.61549 185.27344 298.81641 C 185.31463 299.01748 184.36986 303.25747 183.17383 308.24023 C 181.97784 313.22302 181.04812 317.3577 181.10742 317.42773 C 181.16672 317.49766 182.99343 315.71051 185.16602 313.45508 L 189.11523 309.35352 L 190.75586 310.94336 C 196.33788 316.35496 199.96099 324.12995 201.8418 334.73047 L 202.45312 338.17188 L 201.61328 337.95508 C 195.70618 336.41881 188.10861 335.82938 182.97461 336.50977 C 171.96224 337.96918 163.38319 344.47133 158.80078 354.83203 C 154.61295 364.30065 150.05001 372.52581 145.87695 378.12891 C 142.66102 382.44671 136.89579 388.07626 133.30664 390.4043 C 131.23534 391.74781 130.50852 392.37515 130.82227 392.55078 C 131.06605 392.68722 132.89073 392.93184 134.87695 393.09375 C 149.78847 394.30913 163.72833 387.9311 173.9707 375.20703 C 177.12616 371.28702 179.16383 368.19451 182.14844 362.79492 C 183.39361 360.54236 184.91017 358.02085 185.51758 357.19336 C 186.99091 355.18628 190.59298 351.81866 192.39648 350.76172 C 194.1022 349.76215 197.94361 348.45005 199.98047 348.17188 L 201.41211 347.97656 L 200.45703 348.6875 C 195.38721 352.47156 192.86237 357.2025 192.86328 362.91602 C 192.86351 364.40208 192.96543 366.00487 193.08789 366.47852 C 193.2969 367.28408 193.22331 367.36228 191.95703 367.67969 C 187.63731 368.76237 183.72433 371.88895 181.89844 375.71484 C 181.35389 376.85578 180.9082 377.84393 180.9082 377.91211 C 180.9082 377.9801 181.90281 377.98075 183.11914 377.91211 C 189.05738 377.57649 196.2651 381.73129 204.60156 390.29688 C 207.78495 393.56772 212.30511 398.8773 214.15625 401.51953 C 214.39398 401.85855 214.6503 402.07301 214.72656 401.99609 C 215.05992 401.66009 217.78125 395.82279 217.78125 395.44336 C 217.78125 395.21205 217.90956 395.02148 218.06641 395.02148 C 218.22326 395.02148 218.52829 396.26661 218.74414 397.78711 C 219.29512 401.66865 218.98807 408.74933 218.12695 412.00781 C 217.31685 415.07316 215.44879 419.28085 215.30078 418.37305 C 214.89667 415.89462 213.14668 411.7813 211.20312 408.73633 L 210.11719 407.0332 L 208.41406 410.48438 C 207.47799 412.38276 206.19862 414.50771 205.57031 415.20703 L 204.42773 416.47852 L 202.80664 414.73047 C 201.91475 413.76884 200.47128 411.98166 199.59961 410.75781 C 198.06323 408.60061 195.84766 404.57759 195.84766 403.94531 C 195.84766 403.7741 196.59972 403.98464 197.51758 404.41211 C 200.90672 405.98999 203.76965 405.22834 205.28906 402.34766 L 206.03516 400.93359 L 203.57227 398.45508 C 202.21712 397.09192 200.99656 395.97656 200.86133 395.97656 C 200.72602 395.97656 200.61719 396.32465 200.61719 396.75 C 200.61719 398.81253 199.26879 400.42578 197.54688 400.42578 C 194.56819 400.42578 192.20464 394.91317 193.82617 391.74805 C 194.11266 391.18853 194.50702 390.6274 194.70117 390.50195 C 194.9219 390.35946 194.21889 389.43185 192.82812 388.02734 L 190.60352 385.78125 L 190.17383 386.82031 C 189.26374 389.02797 188.77452 392.86669 188.94531 396.45312 C 189.12597 400.24898 189.84529 403.06721 191.43945 406.22852 C 191.9464 407.23379 192.27037 408.05469 192.16016 408.05469 C 191.65929 408.05469 188.74818 405.63787 187.00586 403.77539 C 185.18439 401.82822 183.1396 398.7689 182.66992 397.28906 C 182.3498 396.28027 181.99064 396.45944 181.40625 397.91992 C 180.51484 400.14776 179.96392 403.02568 179.95898 405.47266 C 179.94387 411.68979 187.07291 426.74003 196.83594 441.11523 C 198.55766 443.65035 200.22636 446.05181 200.54297 446.45312 L 201.11719 447.18359 L 202.76172 445.15625 C 206.47764 440.57629 212.67903 435.40887 217.13672 433.17773 C 221.04226 431.22292 221.38872 431.2265 219.49805 433.21094 C 214.31125 438.65678 209.33116 446.53821 206.86328 453.20703 C 205.12338 457.90873 204.43164 461.88946 204.43164 467.18359 C 204.43164 471.36557 204.47284 471.68022 204.98828 471.44922 C 206.09459 470.95342 208.55038 470.94712 210.20898 471.43555 C 211.89987 471.93278 214.38559 473.2952 218.87695 476.18945 C 222.26435 478.37236 225.01885 479.30633 227.70508 479.18164 C 229.25208 479.10983 230.08398 478.90121 230.72461 478.42578 L 230.72656 478.42773 C 232.59826 477.03864 232.64427 473.98462 230.83398 471.28906 C 229.68285 469.57508 227.99209 468.46049 224.36133 467.02344 C 219.30485 465.02214 217.42926 463.16085 216.36914 459.08984 C 215.89715 457.27722 215.69041 454.15039 216.04297 454.15039 C 216.13557 454.15039 217.02897 454.56244 218.0293 455.06641 C 223.58637 457.86609 232.06338 459.22324 239.98633 458.58008 C 246.12281 458.0819 250.12989 457.07615 254.42773 454.95508 L 256.58203 453.89062 L 256.42773 454.89453 C 256.3427 455.44661 256.18638 456.70048 256.08203 457.68164 C 255.82238 460.12416 254.40627 462.98887 252.76172 464.39648 C 252.02301 465.02884 250.25245 466.01011 248.82617 466.57617 C 243.62516 468.64029 241.99145 469.82698 240.78125 472.42578 C 238.73071 476.82912 240.89165 479.69582 245.86719 479.17383 C 248.36908 478.91153 250.75637 477.87165 254.54297 475.39844 C 259.66378 472.05371 261.64398 471.20249 264.35156 471.17773 C 265.57541 471.1664 266.81426 471.27472 267.10352 471.41797 C 267.56385 471.64625 267.65685 471.34805 267.84961 469.0332 C 268.71633 458.62491 263.14182 444.82418 253.95508 434.63477 C 251.17841 431.55502 251.14426 431.459 253.125 432.23438 C 255.33546 433.0997 258.94328 435.35438 261.76953 437.63672 C 264.0939 439.51378 268.83674 444.25923 270.2832 446.15625 L 271.0957 447.22266 L 272.99805 444.56641 C 280.19884 434.51785 286.28948 423.67539 289.89844 414.47852 C 292.25497 408.47326 292.58894 406.92548 292.20312 403.80469 C 291.86599 401.07897 290.76266 397.08505 290.26172 396.77539 C 290.09844 396.67448 289.65445 397.20387 289.27344 397.95312 C 288.03508 400.38854 286.24302 402.77217 284.17773 404.73242 C 282.27633 406.53696 280.35725 408.05664 279.98047 408.05664 C 279.88863 408.05664 280.15142 407.45012 280.56445 406.70703 C 283.40465 401.59904 284.08967 393.67694 282.24023 387.31641 C 282.04975 386.66077 281.7599 386.12305 281.59766 386.12305 C 281.43551 386.12305 280.39774 386.99388 279.29102 388.05664 L 277.2793 389.98828 L 278.04688 391.11914 C 279.58188 393.38111 278.85134 397.68156 276.61133 399.56641 C 274.566 401.28745 272.42764 400.36202 271.68359 397.43164 L 271.32227 396.00586 L 268.86914 398.24219 C 267.52053 399.47269 266.41797 400.70599 266.41797 400.98242 C 266.41797 401.25871 266.76992 402.08662 267.20117 402.82227 C 268.6293 405.25912 271.49169 405.863 274.65039 404.39258 C 275.59365 403.95347 276.41197 403.64244 276.4707 403.70117 C 276.6816 403.91207 273.99122 408.85018 272.61328 410.78125 C 270.98151 413.06794 268.07205 416.32227 267.66016 416.32227 C 267.12448 416.32227 265.12394 413.29597 263.58008 410.15234 L 262.03125 407.00195 L 261.04102 408.5625 C 259.484 411.01572 258.08602 414.05285 257.34766 416.58203 L 256.66797 418.90625 L 255.84961 417.05859 C 253.96718 412.81188 253.06641 408.35696 253.06641 403.28906 C 253.06641 400.5943 253.57597 395.80385 253.92188 395.24414 C 254.01258 395.09787 254.54911 396.04335 255.11523 397.3457 C 255.68142 398.64809 256.47674 400.25121 256.88281 400.9082 L 257.62109 402.10352 L 258.23633 401.25781 C 262.959 394.7746 271.11983 386.28641 275.78906 383 C 280.92744 379.38341 285.32152 377.71281 289.17188 377.91211 C 291.48354 378.03147 291.47302 378.0614 290.08594 375.30078 C 288.19602 371.53913 284.11233 368.48008 279.75 367.55859 L 278.93555 367.38672 L 279.24414 365.11133 C 280.05251 359.1396 277.51626 353.27792 272.36133 349.20312 C 271.50852 348.52905 270.90124 347.97852 271.01172 347.97852 C 271.12208 347.97852 272.30886 348.20377 273.64844 348.48047 C 280.06075 349.80496 284.90073 353.69794 288.83594 360.69336 C 292.05545 366.41647 293.75747 369.20986 295.55078 371.71484 C 306.49051 386.99557 320.9896 394.42064 337.29297 393.0918 C 342.4648 392.6703 342.50727 392.64354 340.2168 391.25781 C 330.49668 385.37728 321.87752 373.96853 314.45312 357.15625 C 311.52153 350.51777 309.52535 347.47245 305.91602 344.13086 C 302.23725 340.72497 298.38755 338.64975 293.12305 337.23633 C 290.3807 336.50004 289.52266 336.42348 283.90039 336.41211 C 277.87133 336.40077 275.34032 336.70268 270.66406 337.99219 L 269.98438 338.17969 L 270.5957 334.73438 C 272.47693 324.12989 276.10108 316.35542 281.68359 310.94336 L 283.32227 309.35352 L 287.27344 313.45508 C 289.44606 315.71051 291.27078 317.49774 291.33008 317.42773 C 291.38942 317.35781 290.4597 313.22302 289.26367 308.24023 C 288.06764 303.25747 287.1229 299.01733 287.16406 298.81641 C 287.20526 298.61534 288.77107 299.55306 290.64258 300.90039 L 294.04492 303.34961 L 297.51367 302.47852 C 299.42199 301.99897 301.8254 301.51269 302.85352 301.39844 L 304.72266 301.19141 L 307.07227 305.9082 C 308.36512 308.50263 309.47415 310.48144 309.53516 310.30664 C 309.59638 310.13165 310.40242 306.30696 311.32617 301.80664 L 313.00391 293.625 L 315.07617 297.19727 C 317.44843 301.28928 316.51495 300.80405 323.76367 301.71484 C 325.84408 301.97601 327.62559 302.27013 327.72266 302.36719 C 327.81979 302.46432 328.62678 304.69252 329.51758 307.32031 C 330.40837 309.9481 331.26359 312.09822 331.41602 312.09766 C 331.56833 312.09701 332.84736 309.01335 334.25977 305.24609 C 335.67218 301.4789 336.90082 298.39519 336.98828 298.39258 C 337.07597 298.39057 337.78939 299.63858 338.57617 301.16797 L 340.00781 303.94922 L 345.25195 304.47852 C 359.0467 305.8727 375.1254 305.99224 381.54297 304.74805 C 385.13235 304.05224 389.70729 302.85466 389.88867 302.5625 C 389.95784 302.451 387.63088 302.40658 384.71875 302.46289 C 371.95772 302.71083 360.50041 300.92124 343.3457 296.00195 C 327.93294 291.58217 316.39559 289.55597 306.04102 289.60156 z M 266.00586 482.79883 C 265.89055 482.82151 265.73944 483.45041 265.41211 484.97266 C 263.74893 492.70406 257.43447 500.90399 247.26172 508.54102 C 243.48178 511.37868 235.47351 516.45312 234.77539 516.45312 C 234.59549 516.45312 234.42603 516.15681 234.39844 515.79492 C 234.28845 514.33364 233.23411 511.90355 231.96094 510.17578 C 229.90109 507.38033 226.76298 504.69786 220.98242 500.79297 C 214.19197 496.20587 209.61825 491.80851 207.78711 488.10352 C 207.12497 486.76371 206.50976 485.0154 206.41992 484.21875 C 206.32997 483.42206 206.14126 482.8423 206 482.92969 C 205.85865 483.01699 205.50094 484.17618 205.20508 485.50586 C 204.40076 489.12128 204.69652 495.03443 205.86133 498.65234 C 207.1904 502.78038 209.52381 506.88463 212.43359 510.21484 L 213.50977 511.44727 L 213.50586 508.94336 C 213.50386 507.56636 213.69426 505.88847 213.92969 505.21484 C 214.44733 503.73266 214.66133 503.88717 216.32812 506.94727 C 219.38984 512.56784 220.11616 517.9446 218.53125 523.23828 C 218.38385 523.73087 218.4757 523.79103 219.10156 523.60156 C 220.44062 523.19628 222.9355 521.85622 224.16211 520.88477 L 225.36328 519.93359 L 225.73633 521.76953 C 227.35899 529.76301 233.29361 536.69764 240.9043 539.49219 C 242.12802 539.9415 242.89453 540.07792 242.89453 539.8457 C 242.89453 539.77389 242.46977 538.81368 241.94922 537.71289 C 240.51341 534.67699 239.9183 531.53629 240.12891 528.09375 C 240.22642 526.49936 240.4826 524.66284 240.69727 524.01367 L 241.08789 522.83398 L 242.95117 524.56055 C 244.63329 526.1179 246.95439 527.26145 248.43555 527.26172 C 248.65438 527.26172 248.77539 526.10156 248.77539 524.00195 C 248.77539 521.0698 248.86561 520.562 249.67383 518.91602 C 250.26914 517.70373 251.17357 516.57804 252.35352 515.57812 C 255.87116 512.59725 259.20019 509.26567 260.53516 507.39258 C 263.32997 503.47109 265.40804 498.23883 266.07422 493.44922 C 266.45886 490.68374 266.53326 484.99537 266.20508 483.35547 C 266.13236 482.9915 266.07502 482.78583 266.00586 482.79883 z M 255.85156 483.11133 C 255.81214 483.09999 255.75809 483.10844 255.68945 483.14453 C 251.45616 485.3209 248.2501 486.32901 243.36328 487.01953 C 239.77443 487.52667 233.09908 487.59965 229.54492 487.16992 C 225.93192 486.73305 221.06118 485.40236 218.59961 484.17969 C 217.38763 483.57772 216.34846 483.132 216.29102 483.18945 C 216.09146 483.38901 217.15441 486.02864 218.0957 487.67383 C 220.82758 492.44858 226.00862 496.09685 232.34375 497.70508 C 235.26359 498.44632 237.96121 498.33848 241.18945 497.34961 C 247.23473 495.49791 252.14801 491.5671 254.60742 486.61523 C 255.69218 484.43116 256.1275 483.19675 255.85156 483.11133 z "
       transform="scale(0.26458333)" />
  </g>
  <g
     inkscape:label="F.Mask"
     inkscape:groupmode="layer"
     id="g883" />
  <g
     inkscape:label="F.SilkS"
     inkscape:groupmode="layer"
     id="g885" />
</svg>
