<?xml version="1.0" encoding="UTF-8" standalone="no"?>
<svg
   xmlns:dc="http://purl.org/dc/elements/1.1/"
   xmlns:cc="http://creativecommons.org/ns#"
   xmlns:rdf="http://www.w3.org/1999/02/22-rdf-syntax-ns#"
   xmlns:svg="http://www.w3.org/2000/svg"
   xmlns="http://www.w3.org/2000/svg"
   xmlns:sodipodi="http://sodipodi.sourceforge.net/DTD/sodipodi-0.dtd"
   xmlns:inkscape="http://www.inkscape.org/namespaces/inkscape"
   width="210mm"
   height="297mm"
   viewBox="0 0 210 297"
   version="1.1"
   id="svg1617"
   inkscape:version="1.0.1 (3bc2e813f5, 2020-09-07)"
   sodipodi:docname="outline.svg">
  <defs
     id="defs1611" />
  <sodipodi:namedview
     id="base"
     pagecolor="#ffffff"
     bordercolor="#666666"
     borderopacity="1.0"
     inkscape:pageopacity="0.0"
     inkscape:pageshadow="2"
     inkscape:zoom="0.20028448"
     inkscape:cx="179.61553"
     inkscape:cy="802.1963"
     inkscape:document-units="mm"
     inkscape:current-layer="layer1"
     inkscape:document-rotation="0"
     showgrid="false"
     inkscape:window-width="1267"
     inkscape:window-height="1009"
     inkscape:window-x="220"
     inkscape:window-y="0"
     inkscape:window-maximized="0" />
  <metadata
     id="metadata1614">
    <rdf:RDF>
      <cc:Work
         rdf:about="">
        <dc:format>image/svg+xml</dc:format>
        <dc:type
           rdf:resource="http://purl.org/dc/dcmitype/StillImage" />
        <dc:title></dc:title>
      </cc:Work>
    </rdf:RDF>
  </metadata>
  <g
     inkscape:label="Layer 1"
     inkscape:groupmode="layer"
     id="layer1">
    <path
       id="rect849-1"
       style="display:inline;fill:#4d4d4d;fill-opacity:0.4662;stroke-width:0.25;stroke-linecap:round;stroke-linejoin:round;paint-order:markers stroke fill"
       d="m 56.358259,77.24826 c -8.31,0 -14.9996,6.69012 -14.9996,15.000119 V 240.52976 c 0,8.31 6.6896,15.00011 14.9996,15.00011 H 146.0055 c 8.31001,0 15.00012,-6.69011 15.00012,-15.00011 V 92.248379 c 0,-8.309999 -6.69011,-15.000119 -15.00012,-15.000119 z m 44.803981,6.3531 a 5.0000001,5.0000001 0 0 1 0.0196,0 5.0000001,5.0000001 0 0 1 5.0002,4.9997 5.0000001,5.0000001 0 0 1 -5.00022,5.000209 5.0000001,5.0000001 0 0 1 -4.999681,-5.000209 5.0000001,5.0000001 0 0 1 4.980041,-4.9997 z" />
  </g>
</svg>
